<?xml version="1.0" encoding="UTF-8"?>
<svg width="512" height="512" viewBox="0 0 512 512" fill="none" xmlns="http://www.w3.org/2000/svg">
  <!-- Background Circle -->
  <circle cx="256" cy="256" r="256" fill="#22C55E"/>
  
  <!-- Leaf Shape -->
  <path d="M374 138C288.661 138 220 206.661 220 292C220 334.66 235.037 373.962 260.353 404.5C262.037 406.75 265.463 406.75 267.147 404.5C292.463 373.962 307.5 334.66 307.5 292C307.5 275.634 305.391 259.772 301.471 244.705M374 138C459.339 138 528 206.661 528 292M374 138C331.34 138 292.038 153.037 261.5 178.353C259.25 180.037 259.25 183.463 261.5 185.147C292.038 210.463 331.34 225.5 374 225.5C390.366 225.5 406.228 223.391 421.295 219.471" 
        stroke="white" 
        stroke-width="24" 
        stroke-linecap="round"
        transform="translate(-128, 0)"/>
</svg> 